<?xml version="1.0" standalone="no"?>
<!DOCTYPE svg PUBLIC "-//W3C//DTD SVG 20010904//EN"
 "http://www.w3.org/TR/2001/REC-SVG-20010904/DTD/svg10.dtd">
<svg version="1.0" xmlns="http://www.w3.org/2000/svg"
 width="3218.000000pt" height="3218.000000pt" viewBox="0 0 3218.000000 3218.000000"
 preserveAspectRatio="xMidYMid meet">
<metadata>
Created by potrace 1.14, written by Peter Selinger 2001-2017
</metadata>
<g transform="translate(0.000000,3218.000000) scale(0.100000,-0.100000)"
fill="#000000" stroke="none">
<path d="M18429 28266 c-2 -2 -35 -6 -74 -10 -404 -34 -821 -259 -1092 -591
-87 -107 -188 -279 -233 -398 -11 -28 -25 -61 -30 -72 -23 -52 -63 -213 -75
-305 -3 -25 -8 -62 -11 -83 -3 -21 -5 -93 -4 -160 5 -323 6 -18747 1 -18748
-19 -2 -61 -11 -91 -19 -33 -9 -169 -33 -255 -45 -22 -4 -51 -8 -65 -10 -14
-3 -61 -9 -105 -15 -44 -6 -91 -13 -105 -15 -14 -2 -50 -6 -80 -9 -30 -3 -68
-7 -85 -10 -16 -2 -66 -7 -110 -11 -44 -4 -96 -8 -115 -10 -81 -9 -392 -30
-605 -40 -184 -10 -320 -14 -560 -20 -210 -5 -287 -9 -341 -19 -10 -2 -39 -7
-64 -10 -69 -11 -214 -54 -312 -92 -237 -94 -499 -289 -659 -489 -149 -187
-270 -441 -315 -660 -6 -29 -22 -124 -29 -170 -7 -44 -8 -308 -1 -340 2 -11 7
-45 11 -75 3 -30 11 -73 17 -95 6 -22 12 -51 15 -65 2 -14 19 -70 38 -125 138
-405 437 -739 832 -930 96 -47 272 -109 336 -119 19 -3 40 -7 48 -10 8 -3 34
-7 59 -11 25 -3 68 -8 95 -12 68 -8 231 -8 340 0 50 4 160 10 245 12 85 2 205
7 265 11 61 3 144 7 185 9 113 5 309 15 365 20 28 2 91 7 140 10 50 3 106 8
125 10 19 2 67 6 105 10 39 3 95 8 125 11 30 3 71 7 90 9 53 5 141 15 175 20
17 2 53 7 80 10 53 6 253 34 295 40 14 3 43 7 65 10 113 17 338 57 395 71 36
9 76 18 90 21 96 17 319 73 365 93 11 4 40 15 65 23 415 133 630 224 875 372
294 177 532 379 746 633 170 201 330 501 422 793 44 139 52 165 61 219 3 14
14 75 26 135 21 114 24 140 35 315 4 58 7 1767 7 3798 0 2103 4 3692 9 3692 5
0 9 -3 9 -8 0 -9 185 -319 285 -476 22 -35 60 -96 85 -136 151 -242 649 -977
839 -1238 81 -111 181 -247 194 -262 6 -8 43 -58 82 -110 38 -52 72 -97 75
-100 3 -3 34 -43 70 -90 64 -85 388 -494 427 -540 12 -14 72 -86 133 -160 61
-74 117 -139 124 -145 6 -5 19 -20 28 -33 8 -12 30 -39 49 -60 19 -20 59 -66
89 -102 30 -36 57 -67 61 -70 3 -3 39 -43 79 -90 41 -47 83 -94 95 -105 11
-11 38 -41 59 -65 51 -58 213 -233 346 -374 156 -164 611 -617 809 -806 96
-91 191 -181 211 -200 20 -19 68 -62 106 -95 38 -32 83 -71 99 -86 34 -31 110
-97 205 -180 36 -31 124 -108 195 -170 72 -63 179 -152 239 -199 59 -47 212
-168 339 -270 128 -101 318 -246 422 -322 105 -76 195 -141 201 -146 5 -5 37
-28 70 -51 32 -23 82 -58 111 -79 149 -107 286 -203 348 -243 152 -99 282
-184 330 -214 28 -18 115 -75 195 -127 80 -51 161 -103 180 -115 56 -34 234
-137 250 -145 8 -4 62 -37 120 -72 200 -124 450 -237 576 -260 58 -10 89 -16
110 -21 87 -19 316 -26 451 -13 215 22 480 112 677 231 250 152 509 443 617
694 11 26 26 61 34 78 41 92 80 243 105 405 9 53 6 369 -3 420 -2 14 -8 43
-12 65 -56 314 -210 608 -440 840 -142 143 -237 213 -426 313 -52 27 -125 67
-164 89 -156 89 -148 83 -350 215 -55 36 -131 85 -170 110 -38 24 -118 76
-178 114 -163 105 -753 524 -877 623 -58 47 -43 35 -285 226 -250 198 -353
283 -385 315 -3 3 -79 70 -170 150 -306 268 -335 294 -415 371 -44 42 -143
137 -219 211 -274 263 -647 646 -816 837 -30 34 -71 79 -90 99 -19 20 -60 66
-90 101 -30 35 -60 69 -66 75 -9 10 -144 166 -249 291 -241 284 -830 1041
-874 1124 -6 10 -17 25 -24 33 -42 43 -582 839 -721 1063 -21 33 -60 95 -87
138 -27 43 -49 81 -49 83 0 3 -18 32 -40 64 -22 32 -40 60 -40 62 0 2 -36 64
-80 138 -44 74 -80 138 -80 143 0 5 22 30 49 55 27 26 174 169 327 317 152
149 314 306 359 350 45 44 206 200 356 347 151 146 315 305 364 353 50 48 216
210 370 360 154 150 321 312 370 360 91 88 563 547 725 705 48 47 161 157 252
245 90 88 299 291 463 450 164 160 337 328 386 375 146 143 634 618 764 745
67 66 151 156 186 200 35 44 66 82 69 85 36 33 190 326 190 360 0 9 4 20 8 25
8 9 25 63 38 114 2 9 8 34 14 56 5 22 12 60 16 85 3 25 8 48 10 51 4 8 16 183
16 244 0 55 -10 187 -16 221 -2 12 -7 39 -10 59 -13 78 -49 203 -87 300 -199
506 -650 882 -1189 990 -222 44 -481 41 -695 -10 -225 -53 -465 -169 -645
-313 -25 -20 -162 -154 -305 -297 -221 -222 -492 -486 -895 -875 -49 -47 -218
-211 -376 -365 -158 -154 -326 -317 -372 -363 -468 -455 -638 -620 -716 -695
-50 -49 -206 -200 -346 -337 -140 -136 -302 -294 -360 -350 -58 -56 -224 -217
-369 -358 -390 -381 -454 -442 -457 -439 -2 2 -104 258 -229 577 -53 136 -75
196 -75 203 0 5 -7 23 -14 40 -32 70 -332 938 -351 1017 -2 8 -16 51 -30 95
-28 84 -164 529 -170 555 -2 8 -17 65 -35 125 -17 61 -33 118 -35 127 -2 9
-13 51 -25 93 -12 42 -23 84 -25 93 -3 9 -18 71 -36 137 -17 66 -33 127 -35
135 -65 265 -121 503 -137 590 -3 14 -12 59 -20 100 -14 65 -16 285 -16 1675
1 880 -2 1618 -5 1640 -19 143 -29 189 -63 305 -31 104 -40 127 -109 265 -147
295 -395 545 -699 703 -112 59 -279 120 -374 138 -8 2 -25 5 -36 8 -82 21
-421 45 -436 32z"/>
<path d="M10928 26445 c-2 -2 -30 -6 -63 -9 -215 -23 -416 -105 -599 -244 -32
-25 -246 -232 -475 -461 -429 -427 -477 -482 -554 -636 -160 -321 -164 -711
-11 -1044 78 -170 121 -220 566 -664 231 -229 452 -442 491 -471 221 -164 477
-246 750 -240 106 2 185 11 242 26 22 6 48 13 57 15 76 14 239 88 344 156 95
61 134 98 579 542 313 312 402 407 447 475 148 226 210 441 203 705 -7 245
-86 477 -231 676 -53 73 -837 858 -923 923 -165 126 -384 217 -581 242 -54 6
-237 13 -242 9z"/>
<path d="M6295 20858 c-172 -17 -331 -55 -465 -110 -528 -218 -902 -695 -985
-1258 -20 -135 -7 -517 19 -559 3 -4 8 -22 11 -39 11 -64 58 -198 104 -296
156 -332 410 -592 739 -756 100 -50 274 -113 342 -125 19 -3 51 -10 70 -15 63
-17 172 -25 310 -24 152 2 3555 6 3612 5 36 -1 37 -2 28 -28 -5 -16 -32 -118
-60 -228 -137 -531 -306 -1065 -508 -1600 -80 -213 -232 -587 -292 -720 -10
-22 -38 -85 -63 -140 -156 -352 -401 -840 -587 -1173 -41 -73 -84 -149 -95
-170 -11 -20 -23 -38 -27 -40 -5 -2 -8 -8 -8 -13 0 -4 -48 -88 -106 -186 -216
-365 -466 -749 -688 -1057 -66 -92 -128 -178 -136 -190 -62 -90 -412 -544
-498 -645 -20 -24 -43 -54 -51 -65 -8 -12 -17 -23 -21 -26 -3 -3 -25 -30 -49
-60 -25 -30 -49 -59 -55 -65 -6 -5 -58 -66 -116 -135 -57 -69 -107 -127 -110
-130 -4 -3 -44 -48 -90 -100 -89 -101 -219 -246 -285 -316 -238 -253 -351
-370 -600 -619 -389 -389 -642 -628 -986 -931 -30 -27 -87 -76 -125 -110 -80
-71 -232 -200 -444 -376 -377 -315 -939 -734 -1395 -1043 -252 -170 -273 -187
-389 -300 -108 -106 -220 -262 -295 -412 -63 -128 -118 -290 -137 -409 -3 -20
-8 -46 -10 -58 -24 -116 -23 -369 2 -499 20 -106 29 -144 56 -227 49 -152 157
-361 238 -464 125 -157 244 -271 382 -364 66 -44 255 -150 276 -153 4 -1 18
-6 32 -11 86 -33 114 -42 196 -63 50 -13 113 -26 140 -29 27 -4 63 -9 81 -12
96 -18 372 -6 498 20 127 27 284 81 398 139 88 43 435 269 617 400 36 26 90
64 120 84 30 21 82 58 115 83 33 25 116 86 184 135 68 50 198 147 290 218 235
180 262 201 275 212 6 6 42 35 81 65 38 30 79 62 90 71 11 9 99 81 195 160 96
79 180 148 186 153 6 6 30 27 54 46 24 19 48 40 54 45 6 6 43 37 81 70 39 32
77 66 86 75 8 8 40 35 69 60 29 25 58 50 64 55 6 6 54 48 106 94 166 147 309
278 509 466 358 335 930 910 1217 1221 16 17 68 73 116 125 48 52 99 108 113
124 15 17 44 48 64 70 207 224 637 739 895 1070 64 83 122 157 129 165 179
225 642 881 836 1185 35 55 78 123 96 150 165 255 466 764 605 1020 15 28 45
84 68 125 22 41 56 104 76 140 50 92 353 697 403 805 23 50 57 124 76 165 19
41 67 149 107 240 39 91 80 183 90 205 9 22 28 65 40 95 12 30 28 69 36 85 7
17 26 64 43 105 16 41 35 89 42 105 7 17 13 35 15 40 2 6 31 80 64 165 259
656 535 1528 716 2260 2 8 13 53 25 100 11 47 23 92 24 100 59 259 75 331 80
360 3 19 10 49 15 65 5 17 11 44 14 60 2 17 18 91 35 165 23 106 93 452 125
620 3 14 12 61 21 104 8 44 18 93 21 110 3 17 25 132 49 256 61 308 60 303 60
500 0 212 -9 282 -58 445 -11 39 -21 72 -22 75 -2 18 -55 138 -91 208 -95 184
-244 370 -393 490 -25 20 -48 40 -51 43 -17 21 -154 107 -241 152 -147 76
-249 111 -454 157 -22 5 -71 12 -110 16 -92 9 -5839 11 -5930 2z"/>
</g>
</svg>
