<?xml version="1.0" standalone="no"?>
<!DOCTYPE svg PUBLIC "-//W3C//DTD SVG 20010904//EN"
 "http://www.w3.org/TR/2001/REC-SVG-20010904/DTD/svg10.dtd">
<svg version="1.0" xmlns="http://www.w3.org/2000/svg"
 width="3104.000000pt" height="3104.000000pt" viewBox="0 0 3104.000000 3104.000000"
 preserveAspectRatio="xMidYMid meet">
<metadata>
Created by potrace 1.14, written by Peter Selinger 2001-2017
</metadata>
<g transform="translate(0.000000,3104.000000) scale(0.100000,-0.100000)"
fill="#000000" stroke="none">
<path d="M17637 27094 c-1 -1 -42 -4 -92 -7 -94 -7 -117 -10 -228 -33 -64 -13
-196 -53 -242 -73 -186 -82 -287 -140 -415 -242 -145 -115 -273 -259 -378
-424 -83 -133 -174 -369 -201 -522 -6 -32 -13 -71 -16 -88 -3 -16 -5 -4292 -5
-9502 0 -5209 -3 -9474 -8 -9477 -5 -3 -19 -7 -33 -9 -13 -3 -58 -12 -99 -20
-84 -18 -115 -23 -180 -32 -25 -3 -56 -8 -70 -10 -35 -6 -77 -13 -130 -20 -25
-3 -56 -8 -70 -10 -14 -2 -52 -7 -85 -10 -33 -3 -71 -7 -85 -10 -14 -2 -61 -7
-104 -10 -43 -4 -86 -8 -95 -10 -9 -1 -63 -6 -121 -10 -58 -4 -123 -9 -145
-11 -42 -4 -187 -13 -320 -19 -44 -2 -129 -6 -190 -9 -60 -3 -198 -8 -305 -11
-435 -13 -427 -12 -579 -41 -228 -43 -492 -167 -686 -322 -388 -311 -605 -763
-603 -1259 0 -84 4 -171 8 -195 4 -24 10 -61 13 -83 11 -74 57 -237 93 -323
49 -118 78 -174 140 -269 265 -404 682 -666 1160 -730 75 -9 308 -10 444 0 58
4 188 9 289 12 102 3 210 8 240 10 52 4 134 8 381 21 52 2 118 6 145 9 28 2
88 7 135 10 144 10 256 20 340 30 19 2 60 7 90 10 64 7 120 13 170 20 19 3 53
7 75 9 54 7 124 16 155 21 14 2 45 7 70 10 25 3 70 10 100 15 30 5 71 11 90
14 50 8 92 15 117 21 12 3 41 7 65 10 24 3 90 17 148 30 104 25 132 31 180 41
119 24 208 50 450 134 295 102 330 115 480 187 321 154 577 332 818 567 255
249 400 464 553 821 22 54 42 102 43 109 1 6 16 56 34 111 29 94 43 147 56
220 6 29 11 55 21 105 5 26 12 63 19 113 17 103 20 709 20 3999 1 2028 4 3684
8 3680 3 -4 56 -88 116 -187 171 -282 192 -316 233 -380 128 -199 149 -231
158 -242 6 -7 11 -14 11 -17 0 -5 64 -104 120 -186 9 -14 85 -126 169 -250
304 -450 580 -830 937 -1290 44 -57 349 -436 354 -440 3 -3 48 -57 100 -120
52 -63 99 -120 105 -126 5 -6 30 -35 55 -64 25 -30 63 -75 85 -100 22 -25 65
-74 95 -109 30 -35 66 -76 80 -91 23 -25 76 -84 229 -255 30 -33 61 -67 70
-76 9 -9 68 -72 131 -140 225 -243 979 -987 1160 -1145 25 -21 50 -43 56 -49
17 -16 136 -121 164 -145 14 -12 36 -31 50 -43 14 -11 79 -68 145 -126 66 -58
131 -115 145 -127 14 -12 48 -41 75 -65 28 -24 147 -120 265 -213 118 -94 217
-172 220 -176 3 -3 34 -28 70 -55 36 -27 67 -52 70 -55 21 -24 414 -314 590
-435 19 -14 91 -65 160 -115 129 -94 266 -186 540 -362 47 -31 157 -102 246
-159 202 -131 165 -108 406 -249 114 -66 224 -132 245 -146 63 -42 253 -131
350 -163 292 -96 566 -107 905 -36 109 22 347 123 468 197 39 24 179 126 196
142 6 6 34 33 62 59 66 61 173 183 209 239 15 23 30 45 33 48 8 7 59 96 92
159 133 259 192 573 163 876 -8 90 -9 98 -18 140 -4 17 -9 41 -11 55 -24 125
-88 294 -167 435 -121 220 -303 414 -534 572 -16 11 -79 47 -140 79 -60 31
-127 68 -147 81 -21 13 -40 23 -42 23 -9 0 -206 120 -336 205 -74 48 -151 98
-170 110 -240 155 -446 295 -590 399 -96 69 -226 163 -288 207 -62 44 -206
155 -320 245 -114 91 -220 176 -237 189 -91 72 -225 181 -255 208 -19 18 -87
77 -150 131 -63 55 -119 104 -125 110 -5 6 -41 38 -80 71 -38 33 -72 62 -75
65 -3 3 -25 23 -50 44 -75 65 -422 399 -614 592 -237 236 -440 449 -627 658
-24 28 -51 57 -59 66 -8 9 -40 44 -70 79 -30 35 -60 69 -65 75 -6 6 -55 63
-109 126 -54 63 -108 126 -120 140 -300 349 -789 989 -1115 1460 -290 418
-714 1080 -862 1347 l-31 56 108 104 c93 90 416 404 759 738 150 146 630 613
725 705 49 47 211 204 360 350 150 146 309 301 355 345 45 44 207 202 359 350
153 149 321 312 374 363 54 52 220 214 370 360 151 147 317 309 370 361 54 51
216 208 361 350 145 141 307 298 360 350 505 490 559 554 676 796 85 175 133
347 152 540 17 172 3 359 -41 550 -44 195 -186 472 -320 629 -88 103 -122 136
-251 244 -51 44 -206 141 -278 175 -198 94 -331 132 -567 163 -105 13 -439 -2
-471 -22 -4 -2 -24 -6 -45 -10 -71 -11 -271 -82 -364 -128 -188 -95 -314 -187
-454 -336 -107 -112 -289 -291 -926 -910 -52 -51 -214 -208 -360 -350 -146
-142 -304 -295 -351 -341 -92 -89 -592 -576 -739 -719 -131 -128 -620 -603
-720 -700 -48 -47 -208 -202 -355 -345 -147 -143 -338 -328 -424 -412 -118
-115 -159 -149 -167 -140 -10 10 -86 199 -177 437 -14 36 -42 108 -62 160 -95
245 -267 733 -371 1055 -36 110 -69 211 -74 225 -38 109 -247 809 -265 890 -2
8 -21 84 -44 167 -44 165 -146 577 -160 646 -5 23 -24 107 -41 187 l-33 145
-2 1630 c-1 897 -5 1650 -9 1675 -12 77 -15 94 -26 145 -17 84 -21 98 -26 107
-3 4 -7 16 -9 25 -20 99 -155 376 -231 473 -222 282 -450 456 -746 570 -63 24
-217 67 -272 76 -21 3 -48 8 -60 10 -38 8 -273 23 -279 18z"/>
<path d="M10147 25275 c-1 -2 -40 -5 -87 -8 -47 -3 -105 -10 -130 -16 -25 -5
-56 -12 -70 -14 -45 -8 -183 -59 -245 -89 -148 -74 -224 -137 -523 -433 -469
-463 -552 -550 -611 -633 -146 -203 -221 -428 -224 -670 -4 -276 68 -508 226
-729 54 -76 804 -831 910 -916 110 -89 223 -151 362 -200 85 -30 112 -37 230
-57 53 -10 320 -6 370 4 154 33 250 66 371 130 153 81 171 98 771 696 312 309
357 365 432 525 18 39 36 77 40 85 14 29 61 205 70 265 14 92 7 319 -13 410
-41 190 -110 339 -230 495 -44 58 -619 638 -819 825 -173 164 -395 273 -627
309 -89 14 -197 25 -203 21z"/>
<path d="M5409 19685 c-3 -2 -25 -7 -50 -10 -281 -33 -584 -166 -806 -352 -88
-74 -185 -174 -237 -243 -22 -30 -43 -57 -46 -60 -20 -19 -97 -152 -138 -240
-65 -136 -103 -251 -136 -411 -27 -127 -27 -415 -1 -549 8 -38 19 -94 20 -100
76 -298 213 -540 429 -755 103 -103 224 -195 331 -254 33 -18 65 -36 70 -40
17 -13 177 -78 245 -99 67 -22 132 -38 198 -48 20 -3 39 -7 42 -9 11 -7 197
-18 255 -15 33 1 867 3 1853 5 1660 3 1792 2 1788 -14 -3 -9 -23 -86 -45 -171
-66 -262 -80 -310 -181 -648 -117 -390 -308 -941 -425 -1227 -4 -11 -9 -24
-11 -30 -5 -18 -159 -387 -214 -510 -128 -290 -177 -395 -327 -695 -72 -146
-151 -301 -175 -345 -25 -44 -65 -118 -90 -165 -40 -73 -83 -149 -180 -320
-21 -36 -125 -212 -143 -241 -5 -9 -27 -45 -48 -80 -68 -112 -81 -134 -142
-230 -314 -493 -744 -1092 -1066 -1484 -10 -11 -61 -74 -115 -140 -80 -97
-312 -368 -422 -494 -383 -432 -1053 -1115 -1476 -1502 -32 -30 -73 -67 -91
-84 -55 -52 -196 -178 -300 -270 -55 -48 -116 -102 -135 -119 -30 -27 -171
-147 -249 -211 -13 -11 -28 -25 -35 -30 -6 -6 -36 -30 -66 -55 -30 -25 -57
-47 -60 -50 -3 -4 -97 -79 -210 -169 -113 -90 -214 -171 -225 -180 -29 -24
-479 -359 -550 -410 -204 -145 -267 -189 -420 -291 -221 -148 -271 -186 -375
-289 -187 -185 -313 -389 -394 -636 -222 -680 41 -1432 639 -1821 183 -119
372 -194 600 -240 95 -19 399 -28 475 -14 25 4 66 11 91 14 122 16 318 83 462
158 188 98 803 528 1332 932 183 140 554 434 570 452 6 6 46 39 90 74 44 36
109 89 145 120 36 31 144 123 240 206 96 82 182 156 190 164 17 16 160 144
191 170 17 16 148 134 204 186 440 403 1140 1103 1496 1495 13 15 62 68 109
119 47 51 93 102 103 114 10 12 30 35 46 51 50 55 355 409 426 495 38 47 72
87 75 90 3 3 81 100 173 215 92 116 180 226 195 245 32 39 326 430 358 476 11
16 57 79 100 139 178 247 330 470 549 810 84 131 374 604 388 635 4 8 15 29
26 45 15 25 71 122 161 280 9 17 32 57 50 90 18 33 48 87 66 120 101 184 385
745 471 930 23 50 62 134 87 188 25 54 46 100 46 102 0 2 20 48 45 101 25 53
45 102 45 110 0 8 5 14 10 14 6 0 10 6 10 12 0 11 42 115 95 233 42 93 228
571 308 793 172 470 353 1030 451 1392 8 30 26 96 40 145 35 128 77 287 81
305 2 8 17 69 34 135 32 127 116 496 126 555 3 19 11 53 16 75 6 22 12 47 14
55 2 8 17 83 35 165 18 83 34 159 36 170 11 52 35 173 40 204 3 18 8 42 10 52
11 52 14 67 20 99 4 19 8 42 9 50 2 8 20 101 40 205 20 105 39 199 41 210 2
11 15 76 28 145 33 162 34 172 43 255 12 120 5 350 -12 415 -2 8 -7 31 -10 50
-26 152 -119 393 -203 524 -120 188 -303 378 -467 488 -102 67 -272 158 -297
158 -8 0 -18 4 -23 9 -11 10 -164 58 -210 67 -16 3 -31 7 -35 9 -4 2 -29 7
-56 10 -27 4 -69 11 -94 15 -47 9 -5963 14 -5971 5z"/>
</g>
</svg>
