<?xml version="1.0" standalone="no"?>
<!DOCTYPE svg PUBLIC "-//W3C//DTD SVG 20010904//EN"
 "http://www.w3.org/TR/2001/REC-SVG-20010904/DTD/svg10.dtd">
<svg version="1.0" xmlns="http://www.w3.org/2000/svg"
 width="2946.000000pt" height="2946.000000pt" viewBox="0 0 2946.000000 2946.000000"
 preserveAspectRatio="xMidYMid meet">
<metadata>
Created by potrace 1.14, written by Peter Selinger 2001-2017
</metadata>
<g transform="translate(0.000000,2946.000000) scale(0.100000,-0.100000)"
fill="#000000" stroke="none">
<path d="M17117 26094 c-1 -1 -38 -4 -83 -8 -145 -11 -368 -65 -472 -115 -330
-157 -518 -307 -699 -558 -67 -94 -177 -306 -212 -411 -58 -173 -87 -360 -83
-537 1 -49 3 -4285 5 -9412 l2 -9322 -25 -6 c-29 -8 -34 -9 -125 -29 -38 -8
-92 -17 -119 -21 -27 -3 -59 -7 -70 -10 -12 -2 -39 -7 -61 -10 -22 -3 -65 -10
-95 -15 -30 -5 -82 -12 -115 -15 -33 -3 -73 -8 -90 -10 -16 -2 -75 -9 -130
-15 -55 -6 -118 -12 -140 -15 -22 -2 -83 -7 -135 -10 -52 -4 -115 -8 -140 -10
-128 -9 -236 -16 -340 -20 -63 -3 -144 -7 -180 -10 -36 -2 -182 -6 -325 -10
-243 -5 -383 -12 -430 -21 -10 -2 -37 -6 -59 -10 -225 -33 -505 -159 -714
-321 -208 -161 -416 -435 -498 -656 -33 -90 -74 -217 -79 -249 -3 -18 -8 -40
-10 -48 -2 -8 -7 -33 -10 -55 -55 -396 11 -741 204 -1080 85 -149 278 -362
421 -466 239 -174 481 -272 775 -315 68 -10 331 -12 380 -3 22 4 144 10 270
14 127 3 250 8 275 10 25 2 108 6 185 10 77 3 165 8 195 10 30 2 96 6 145 9
148 10 227 16 285 21 30 3 80 8 110 10 96 8 173 16 205 20 28 4 46 6 160 19
50 6 185 23 245 31 25 4 70 10 100 15 30 5 75 12 100 15 25 3 56 8 70 10 55
11 78 15 165 30 159 28 526 116 625 150 52 19 163 57 245 85 278 94 389 143
610 268 265 148 576 399 745 598 14 16 49 57 78 91 141 165 308 480 395 748
47 144 62 196 72 252 3 18 14 78 25 133 11 55 22 140 25 188 3 48 8 123 11
167 3 44 6 1737 6 3763 0 2026 2 3681 5 3678 3 -3 11 -14 17 -25 37 -66 282
-466 344 -561 19 -30 55 -86 80 -125 61 -96 454 -688 465 -700 4 -5 63 -89
130 -185 104 -147 190 -268 287 -400 316 -432 700 -917 1050 -1325 128 -150
134 -157 145 -169 6 -6 62 -69 125 -141 63 -71 134 -150 156 -175 23 -25 56
-61 74 -80 175 -191 306 -327 615 -635 306 -307 623 -615 701 -682 18 -16 124
-108 158 -138 40 -36 193 -169 246 -215 35 -30 68 -60 74 -65 58 -55 268 -229
426 -355 107 -85 200 -159 207 -165 20 -16 30 -25 178 -141 122 -97 451 -337
835 -609 187 -133 889 -583 1100 -705 107 -62 222 -129 255 -150 118 -73 273
-142 409 -180 245 -68 533 -76 802 -20 332 69 658 269 890 545 81 96 114 146
202 305 52 95 124 308 144 430 5 30 11 66 14 80 17 76 10 367 -11 495 -40 242
-165 519 -322 715 -158 196 -313 322 -562 454 -182 98 -320 179 -497 295 -90
58 -205 133 -256 165 -145 93 -307 201 -373 249 -33 24 -159 115 -280 202
-191 137 -364 266 -402 300 -6 5 -26 21 -44 35 -27 20 -154 121 -219 173 -173
138 -233 188 -330 272 -63 55 -120 104 -126 110 -6 5 -37 33 -69 60 -32 28
-65 57 -74 65 -9 9 -50 45 -91 80 -95 82 -70 60 -261 240 -364 344 -902 898
-1129 1160 -45 52 -125 143 -135 154 -60 63 -320 374 -495 593 -175 217 -157
194 -240 303 -35 47 -67 87 -70 90 -3 3 -44 57 -90 120 -46 63 -88 120 -93
125 -4 6 -36 49 -71 98 -35 48 -71 97 -79 110 -299 412 -676 987 -963 1465
l-121 203 126 124 c69 68 169 165 221 215 52 51 223 217 380 370 157 152 317
308 356 346 62 60 447 434 724 704 48 47 210 204 360 350 390 380 397 386 721
701 162 158 330 321 374 364 77 74 529 514 720 700 51 50 217 212 370 360 592
575 634 620 740 783 78 122 174 346 199 465 3 12 7 33 11 47 22 104 29 176 30
320 0 199 -7 267 -44 413 -98 386 -331 720 -661 944 -42 28 -64 41 -152 91
-64 36 -258 113 -320 128 -44 10 -126 27 -208 42 -111 21 -368 19 -500 -3
-205 -35 -432 -122 -597 -227 -135 -87 -187 -133 -458 -403 -248 -247 -567
-560 -925 -905 -47 -45 -206 -200 -355 -345 -148 -145 -309 -301 -357 -346
-47 -46 -213 -208 -368 -359 -155 -151 -319 -310 -364 -353 -44 -44 -207 -202
-361 -352 -154 -150 -314 -306 -356 -346 -43 -41 -199 -193 -349 -339 -149
-146 -313 -305 -363 -353 l-91 -89 -17 39 c-37 81 -49 111 -49 118 0 3 -8 25
-19 48 -53 118 -221 565 -341 902 -73 206 -267 788 -295 885 -8 25 -37 119
-65 210 -28 91 -53 172 -55 180 -2 8 -20 71 -40 140 -20 69 -45 157 -55 195
-10 39 -30 113 -45 165 -14 52 -28 102 -29 110 -2 8 -10 35 -17 60 -7 25 -14
51 -15 59 -1 7 -25 106 -53 220 -28 113 -71 296 -95 406 l-43 200 -1 1605 c-1
883 -3 1625 -6 1649 -27 226 -92 445 -178 599 -50 89 -63 110 -100 165 -256
377 -694 641 -1153 693 -55 6 -252 13 -258 8z"/>
<path d="M9658 24275 c-2 -2 -35 -5 -73 -6 -38 -1 -97 -8 -130 -15 -33 -7 -62
-13 -65 -14 -3 0 -23 -5 -45 -11 -22 -6 -48 -13 -57 -14 -53 -11 -237 -106
-330 -171 -49 -35 -227 -204 -500 -477 -448 -446 -492 -497 -568 -662 -18 -38
-36 -77 -41 -86 -4 -9 -13 -36 -20 -60 -7 -24 -14 -48 -15 -54 -6 -21 -23 -91
-29 -125 -11 -58 -14 -291 -4 -355 35 -225 107 -393 245 -575 55 -72 809 -824
896 -893 210 -166 456 -249 743 -251 271 -1 493 69 710 222 104 75 902 869
970 966 138 198 214 426 219 662 3 108 -9 215 -38 339 -25 111 -114 293 -196
404 -47 63 -764 789 -880 890 -171 150 -427 258 -660 277 -36 3 -79 7 -97 8
-18 2 -33 2 -35 1z"/>
<path d="M5067 18694 c-1 -1 -40 -4 -87 -8 -96 -6 -153 -13 -190 -22 -14 -3
-36 -8 -50 -10 -191 -35 -476 -170 -645 -307 -134 -109 -286 -280 -375 -424
-103 -167 -196 -428 -216 -608 -3 -33 -8 -69 -10 -80 -7 -32 -6 -246 1 -300 7
-58 22 -151 29 -180 110 -497 461 -922 926 -1122 85 -37 157 -63 185 -69 6 -1
37 -9 70 -17 63 -16 126 -29 160 -32 65 -8 166 -14 200 -14 22 1 858 3 1859 6
l1819 4 -7 -33 c-4 -18 -9 -40 -11 -48 -18 -83 -144 -544 -183 -670 -14 -47
-26 -87 -27 -90 -1 -3 -4 -14 -7 -25 -4 -11 -26 -81 -49 -155 -65 -211 -236
-711 -269 -785 -4 -11 -34 -87 -65 -170 -32 -82 -63 -163 -70 -180 -7 -16 -41
-97 -75 -180 -213 -514 -538 -1184 -780 -1605 -23 -41 -56 -100 -73 -130 -16
-30 -38 -67 -49 -82 -10 -14 -18 -29 -18 -32 0 -9 -231 -387 -349 -571 -338
-530 -748 -1087 -1194 -1625 -94 -113 -173 -207 -176 -210 -4 -3 -38 -41 -76
-85 -65 -74 -236 -266 -260 -291 -5 -6 -55 -60 -110 -119 -326 -354 -929 -957
-1220 -1220 -16 -15 -52 -49 -80 -74 -48 -46 -89 -82 -244 -220 -40 -36 -83
-75 -95 -86 -12 -11 -50 -45 -86 -75 -36 -30 -78 -67 -95 -81 -35 -31 -191
-163 -220 -187 -45 -37 -131 -108 -150 -124 -45 -37 -433 -345 -470 -372 -22
-17 -42 -33 -45 -36 -3 -3 -39 -30 -80 -60 -41 -30 -77 -57 -80 -60 -14 -16
-516 -373 -655 -465 -33 -22 -62 -42 -65 -45 -3 -3 -44 -31 -92 -63 -154 -101
-298 -234 -393 -362 -17 -22 -33 -41 -37 -43 -5 -2 -8 -8 -8 -13 0 -5 -15 -30
-34 -56 -38 -53 -102 -178 -136 -263 -44 -111 -69 -199 -94 -330 -28 -146 -29
-338 -1 -530 7 -50 42 -194 55 -225 4 -11 16 -42 25 -70 88 -250 287 -520 511
-695 156 -121 362 -226 543 -275 78 -22 92 -25 121 -31 14 -2 34 -6 45 -9 87
-19 369 -26 475 -12 139 19 242 44 360 87 199 73 424 216 1019 642 107 77 557
413 610 456 25 20 52 42 61 48 60 46 458 367 560 453 69 58 154 130 190 160
95 79 281 242 420 366 36 32 88 78 115 103 28 24 75 68 105 96 31 28 85 78
120 111 207 190 432 407 720 695 326 327 412 415 635 655 66 71 127 136 135
144 90 95 464 521 611 697 81 98 205 248 222 269 300 374 608 783 847 1125 60
86 421 630 468 705 110 177 383 635 457 765 48 85 95 169 105 185 9 17 43 80
75 140 32 61 83 155 113 210 70 131 355 708 422 855 29 63 65 143 81 177 16
34 40 91 55 125 14 35 34 81 44 103 95 211 279 673 400 1005 92 254 311 903
324 965 2 6 11 37 21 70 10 33 20 65 21 70 2 6 26 89 54 185 46 157 189 699
218 825 6 28 21 88 32 135 21 89 156 713 165 758 2 14 9 48 15 76 14 69 20
102 36 191 2 11 13 65 24 120 11 55 21 111 24 125 2 14 7 36 10 50 6 25 14 65
20 105 4 19 10 51 21 105 3 14 18 95 34 180 17 85 33 171 37 190 10 57 13 360
3 420 -5 30 -11 73 -15 95 -3 22 -7 43 -10 46 -2 4 -6 24 -10 44 -15 98 -113
334 -189 456 -84 134 -237 307 -365 411 -229 186 -560 319 -854 343 -57 5
-5783 13 -5789 9z"/>
</g>
</svg>
